<svg version="1.1" id="Layer_1" x="0px" y="0px" viewBox="0 0 1600 473.654" style="enable-background:new 0 0 473.654 473.654;" width="50px" height="50px" xmlns="http://www.w3.org/2000/svg" xmlns:bx="https://boxy-svg.com">

  <circle style="fill:#0053fa;" cx="236.827" cy="236.827" r="236.827"></circle>
  <path style="fill:#FFFFFF;" d="M417.235,184.185c-1.339-1.47-3.272-2.367-5.632-2.169c-0.632,0.015-1.253,0.108-1.851,0.295
c-25.504,5.452-51.004,10.905-76.508,16.353c-5.299,1.137-6.724,8.156-3.115,11.761c6.754,6.754,13.504,13.504,20.257,20.257
c-31.708,31.704-63.412,63.408-95.116,95.116c0-53.382,0-106.769,0-160.147c9.648,0,19.292,0,28.937,0
c5.149,0,9.061-5.991,6.099-10.561c-14.192-21.903-28.383-43.805-42.575-65.704c-0.12-0.224-0.266-0.43-0.411-0.639
c-0.011-0.019-0.022-0.037-0.037-0.056c-0.011-0.015-0.022-0.026-0.034-0.045c-0.157-0.217-0.314-0.423-0.497-0.621
c-1.537-1.9-3.586-2.655-5.609-2.55c-1.978-0.049-3.968,0.748-5.464,2.61c-0.116,0.127-0.217,0.266-0.322,0.404
c-0.064,0.086-0.135,0.15-0.194,0.239c-0.082,0.131-0.168,0.258-0.251,0.389c-0.034,0.056-0.075,0.101-0.105,0.157
c-14.218,21.951-28.436,43.899-42.657,65.85c-2.894,4.473,0.939,10.519,6.021,10.519c9.682,0,19.364,0,29.045,0
c0,53.308,0,106.615,0,159.923c-31.513-31.513-63.027-63.027-94.536-94.536c6.885-6.885,13.773-13.773,20.661-20.657
c3.571-3.571,2.079-10.583-3.134-11.697c-25.549-5.46-51.098-10.92-76.646-16.376c-0.553-0.165-1.133-0.247-1.72-0.266
c-2.315-0.198-4.233,0.654-5.576,2.064c-1.462,1.331-2.36,3.261-2.169,5.613c0.011,0.647,0.108,1.275,0.299,1.881
c5.449,25.496,10.901,51,16.349,76.497c1.133,5.299,8.152,6.724,11.757,3.119c6.78-6.78,13.56-13.56,20.34-20.34
c39.415,39.415,78.83,78.83,118.245,118.245c3.328,3.328,7.12,4.405,10.695,4.001c3.354,0.142,6.855-1.017,9.944-4.11
c39.497-39.497,78.995-78.995,118.492-118.496c6.914,6.918,13.833,13.829,20.747,20.747c3.571,3.571,10.583,2.083,11.694-3.134
c5.456-25.549,10.912-51.094,16.368-76.643c0.165-0.553,0.251-1.137,0.269-1.724C419.494,187.442,418.645,185.524,417.235,184.185z"></path>
  <path d="M 659.035 234.697 C 659.035 264.157 650.858 286.677 634.505 302.257 C 618.145 317.844 594.585 325.637 563.825 325.637 L 513.895 325.637 L 513.895 147.167 L 569.075 147.167 C 597.475 147.167 619.568 154.817 635.355 170.117 C 651.142 185.417 659.035 206.944 659.035 234.697 Z M 628.275 235.667 C 628.275 192.947 608.295 171.587 568.335 171.587 L 543.065 171.587 L 543.065 301.097 L 563.825 301.097 C 606.792 301.097 628.275 279.287 628.275 235.667 ZM 753.273 328.077 C 732.273 328.077 715.853 321.954 704.013 309.707 C 692.173 297.46 686.253 280.594 686.253 259.107 C 686.253 237.054 691.746 219.72 702.733 207.107 C 713.72 194.494 728.816 188.187 748.023 188.187 C 765.843 188.187 779.923 193.597 790.263 204.417 C 800.596 215.244 805.763 230.137 805.763 249.097 L 805.763 264.597 L 715.793 264.597 C 716.2 277.704 719.74 287.777 726.413 294.817 C 733.086 301.857 742.486 305.377 754.613 305.377 C 762.586 305.377 770.013 304.624 776.893 303.117 C 783.766 301.61 791.15 299.107 799.043 295.607 L 799.043 318.927 C 792.05 322.26 784.97 324.62 777.803 326.007 C 770.643 327.387 762.466 328.077 753.273 328.077 Z M 748.023 209.917 C 738.91 209.917 731.606 212.804 726.113 218.577 C 720.62 224.357 717.343 232.78 716.283 243.847 L 777.563 243.847 C 777.403 232.7 774.716 224.257 769.503 218.517 C 764.296 212.784 757.136 209.917 748.023 209.917 ZM 943.333 325.637 L 922.823 325.637 L 917.083 306.837 L 916.113 306.837 C 909.6 315.057 903.046 320.654 896.453 323.627 C 889.866 326.594 881.403 328.077 871.063 328.077 C 857.803 328.077 847.45 324.497 840.003 317.337 C 832.556 310.177 828.833 300.044 828.833 286.937 C 828.833 273.024 834 262.527 844.333 255.447 C 854.666 248.367 870.413 244.5 891.573 243.847 L 914.893 243.117 L 914.893 235.917 C 914.893 227.29 912.876 220.84 908.843 216.567 C 904.816 212.294 898.573 210.157 890.113 210.157 C 883.193 210.157 876.56 211.174 870.213 213.207 C 863.866 215.24 857.763 217.644 851.903 220.417 L 842.623 199.907 C 849.95 196.08 857.966 193.17 866.673 191.177 C 875.38 189.184 883.6 188.187 891.333 188.187 C 908.5 188.187 921.46 191.93 930.213 199.417 C 938.96 206.904 943.333 218.664 943.333 234.697 L 943.333 325.637 Z M 880.103 306.107 C 890.516 306.107 898.876 303.197 905.183 297.377 C 911.49 291.557 914.643 283.4 914.643 272.907 L 914.643 261.187 L 897.313 261.917 C 883.8 262.404 873.973 264.66 867.833 268.687 C 861.686 272.72 858.613 278.887 858.613 287.187 C 858.613 293.207 860.403 297.864 863.983 301.157 C 867.563 304.457 872.936 306.107 880.103 306.107 ZM 1028.899 328.077 C 1012.053 328.077 998.909 321.974 989.469 309.767 C 980.029 297.56 975.309 280.43 975.309 258.377 C 975.309 236.244 980.089 219.01 989.649 206.677 C 999.216 194.35 1012.463 188.187 1029.389 188.187 C 1047.129 188.187 1060.639 194.737 1069.919 207.837 L 1071.379 207.837 C 1069.999 198.157 1069.309 190.507 1069.309 184.887 L 1069.309 135.697 L 1098.109 135.697 L 1098.109 325.637 L 1075.649 325.637 L 1070.649 307.937 L 1069.309 307.937 C 1060.109 321.364 1046.639 328.077 1028.899 328.077 Z M 1036.589 304.887 C 1048.389 304.887 1056.976 301.57 1062.349 294.937 C 1067.716 288.304 1070.483 277.54 1070.649 262.647 L 1070.649 258.617 C 1070.649 241.61 1067.883 229.527 1062.349 222.367 C 1056.816 215.207 1048.149 211.627 1036.349 211.627 C 1026.256 211.627 1018.483 215.714 1013.029 223.887 C 1007.576 232.067 1004.849 243.727 1004.849 258.867 C 1004.849 273.84 1007.496 285.254 1012.789 293.107 C 1018.076 300.96 1026.009 304.887 1036.589 304.887 ZM 1245.078 277.177 C 1245.078 293.044 1239.341 305.494 1227.868 314.527 C 1216.395 323.56 1200.568 328.077 1180.388 328.077 C 1160.201 328.077 1143.681 324.944 1130.828 318.677 L 1130.828 291.087 C 1138.961 294.914 1147.608 297.927 1156.768 300.127 C 1165.921 302.32 1174.445 303.417 1182.338 303.417 C 1193.891 303.417 1202.415 301.22 1207.908 296.827 C 1213.401 292.434 1216.148 286.534 1216.148 279.127 C 1216.148 272.454 1213.628 266.797 1208.588 262.157 C 1203.541 257.524 1193.125 252.03 1177.338 245.677 C 1161.058 239.09 1149.581 231.564 1142.908 223.097 C 1136.235 214.637 1132.898 204.464 1132.898 192.577 C 1132.898 177.684 1138.188 165.967 1148.768 157.427 C 1159.348 148.88 1173.548 144.607 1191.368 144.607 C 1208.461 144.607 1225.471 148.35 1242.398 155.837 L 1233.118 179.637 C 1217.251 172.964 1203.091 169.627 1190.638 169.627 C 1181.198 169.627 1174.038 171.684 1169.158 175.797 C 1164.271 179.904 1161.828 185.337 1161.828 192.097 C 1161.828 196.73 1162.805 200.697 1164.758 203.997 C 1166.711 207.29 1169.928 210.404 1174.408 213.337 C 1178.881 216.264 1186.938 220.127 1198.578 224.927 C 1211.678 230.38 1221.278 235.467 1227.378 240.187 C 1233.485 244.907 1237.961 250.237 1240.808 256.177 C 1243.655 262.117 1245.078 269.117 1245.078 277.177 ZM 1308.556 252.397 L 1308.556 325.637 L 1279.626 325.637 L 1279.626 147.167 L 1380.336 147.167 L 1380.336 171.827 L 1308.556 171.827 L 1308.556 227.617 L 1375.816 227.617 L 1375.816 252.397 L 1308.556 252.397 ZM 1523.4 147.167 L 1552.57 147.167 L 1552.57 262.647 C 1552.57 275.834 1549.744 287.37 1544.09 297.257 C 1538.43 307.144 1530.25 314.754 1519.55 320.087 C 1508.85 325.414 1496.054 328.077 1481.16 328.077 C 1459.027 328.077 1441.817 322.217 1429.53 310.497 C 1417.237 298.784 1411.09 282.67 1411.09 262.157 L 1411.09 147.167 L 1440.39 147.167 L 1440.39 260.087 C 1440.39 274.814 1443.807 285.677 1450.64 292.677 C 1457.48 299.677 1467.98 303.177 1482.14 303.177 C 1509.647 303.177 1523.4 288.73 1523.4 259.837 L 1523.4 147.167 Z" transform="matrix(1, 0, 0, 1, 0, 0)" style="fill: rgb(0, 83, 250); white-space: pre;"></path>
</svg>