<svg version="1.1" id="Layer_1" x="0px" y="0px" viewBox="0 0 1300 473.654" style="enable-background:new 0 0 473.654 473.654;" width="50px" height="50px" xmlns="http://www.w3.org/2000/svg" xmlns:bx="https://boxy-svg.com">

  <circle style="fill:#0053fa;" cx="236.827" cy="236.827" r="236.827"></circle>
  <path style="fill:#FFFFFF;" d="M417.235,184.185c-1.339-1.47-3.272-2.367-5.632-2.169c-0.632,0.015-1.253,0.108-1.851,0.295
c-25.504,5.452-51.004,10.905-76.508,16.353c-5.299,1.137-6.724,8.156-3.115,11.761c6.754,6.754,13.504,13.504,20.257,20.257
c-31.708,31.704-63.412,63.408-95.116,95.116c0-53.382,0-106.769,0-160.147c9.648,0,19.292,0,28.937,0
c5.149,0,9.061-5.991,6.099-10.561c-14.192-21.903-28.383-43.805-42.575-65.704c-0.12-0.224-0.266-0.43-0.411-0.639
c-0.011-0.019-0.022-0.037-0.037-0.056c-0.011-0.015-0.022-0.026-0.034-0.045c-0.157-0.217-0.314-0.423-0.497-0.621
c-1.537-1.9-3.586-2.655-5.609-2.55c-1.978-0.049-3.968,0.748-5.464,2.61c-0.116,0.127-0.217,0.266-0.322,0.404
c-0.064,0.086-0.135,0.15-0.194,0.239c-0.082,0.131-0.168,0.258-0.251,0.389c-0.034,0.056-0.075,0.101-0.105,0.157
c-14.218,21.951-28.436,43.899-42.657,65.85c-2.894,4.473,0.939,10.519,6.021,10.519c9.682,0,19.364,0,29.045,0
c0,53.308,0,106.615,0,159.923c-31.513-31.513-63.027-63.027-94.536-94.536c6.885-6.885,13.773-13.773,20.661-20.657
c3.571-3.571,2.079-10.583-3.134-11.697c-25.549-5.46-51.098-10.92-76.646-16.376c-0.553-0.165-1.133-0.247-1.72-0.266
c-2.315-0.198-4.233,0.654-5.576,2.064c-1.462,1.331-2.36,3.261-2.169,5.613c0.011,0.647,0.108,1.275,0.299,1.881
c5.449,25.496,10.901,51,16.349,76.497c1.133,5.299,8.152,6.724,11.757,3.119c6.78-6.78,13.56-13.56,20.34-20.34
c39.415,39.415,78.83,78.83,118.245,118.245c3.328,3.328,7.12,4.405,10.695,4.001c3.354,0.142,6.855-1.017,9.944-4.11
c39.497-39.497,78.995-78.995,118.492-118.496c6.914,6.918,13.833,13.829,20.747,20.747c3.571,3.571,10.583,2.083,11.694-3.134
c5.456-25.549,10.912-51.094,16.368-76.643c0.165-0.553,0.251-1.137,0.269-1.724C419.494,187.442,418.645,185.524,417.235,184.185z"></path>
  <path d="M 626.442 230.864 C 626.442 252.077 620.555 268.294 608.782 279.514 C 597.002 290.734 580.039 296.344 557.892 296.344 L 521.942 296.344 L 521.942 167.844 L 561.672 167.844 C 582.119 167.844 598.025 173.354 609.392 184.374 C 620.759 195.387 626.442 210.884 626.442 230.864 Z M 604.302 231.564 C 604.302 200.804 589.915 185.424 561.142 185.424 L 542.952 185.424 L 542.952 278.674 L 557.892 278.674 C 588.832 278.674 604.302 262.971 604.302 231.564 ZM 694.296 298.104 C 679.176 298.104 667.353 293.694 658.826 284.874 C 650.3 276.054 646.036 263.911 646.036 248.444 C 646.036 232.564 649.993 220.084 657.906 211.004 C 665.82 201.924 676.69 197.384 690.516 197.384 C 703.35 197.384 713.486 201.277 720.926 209.064 C 728.366 216.857 732.086 227.581 732.086 241.234 L 732.086 252.394 L 667.306 252.394 C 667.6 261.834 670.15 269.087 674.956 274.154 C 679.763 279.221 686.53 281.754 695.256 281.754 C 701.003 281.754 706.35 281.211 711.296 280.124 C 716.25 279.044 721.57 277.244 727.256 274.724 L 727.256 291.514 C 722.216 293.914 717.116 295.611 711.956 296.604 C 706.803 297.604 700.916 298.104 694.296 298.104 Z M 690.516 213.024 C 683.95 213.024 678.69 215.104 674.736 219.264 C 670.783 223.424 668.426 229.487 667.666 237.454 L 711.786 237.454 C 711.666 229.427 709.733 223.351 705.986 219.224 C 702.233 215.091 697.076 213.024 690.516 213.024 ZM 831.133 296.344 L 816.373 296.344 L 812.243 282.804 L 811.533 282.804 C 806.846 288.724 802.13 292.754 797.383 294.894 C 792.636 297.034 786.543 298.104 779.103 298.104 C 769.55 298.104 762.093 295.524 756.733 290.364 C 751.373 285.211 748.693 277.917 748.693 268.484 C 748.693 258.464 752.413 250.904 759.853 245.804 C 767.293 240.711 778.633 237.927 793.873 237.454 L 810.653 236.934 L 810.653 231.744 C 810.653 225.531 809.203 220.887 806.303 217.814 C 803.403 214.741 798.906 213.204 792.813 213.204 C 787.833 213.204 783.06 213.934 778.493 215.394 C 773.92 216.861 769.523 218.591 765.303 220.584 L 758.623 205.814 C 763.896 203.061 769.67 200.967 775.943 199.534 C 782.21 198.101 788.126 197.384 793.693 197.384 C 806.06 197.384 815.39 200.077 821.683 205.464 C 827.983 210.857 831.133 219.324 831.133 230.864 L 831.133 296.344 Z M 785.603 282.284 C 793.103 282.284 799.126 280.187 803.673 275.994 C 808.213 271.807 810.483 265.934 810.483 258.374 L 810.483 249.934 L 798.003 250.464 C 788.276 250.817 781.2 252.444 776.773 255.344 C 772.353 258.244 770.143 262.681 770.143 268.654 C 770.143 272.994 771.43 276.351 774.003 278.724 C 776.583 281.097 780.45 282.284 785.603 282.284 ZM 892.743 298.104 C 880.616 298.104 871.153 293.707 864.353 284.914 C 857.553 276.127 854.153 263.794 854.153 247.914 C 854.153 231.981 857.596 219.574 864.483 210.694 C 871.37 201.821 880.906 197.384 893.093 197.384 C 905.866 197.384 915.593 202.101 922.273 211.534 L 923.323 211.534 C 922.33 204.561 921.833 199.051 921.833 195.004 L 921.833 159.584 L 942.573 159.584 L 942.573 296.344 L 926.403 296.344 L 922.803 283.604 L 921.833 283.604 C 915.213 293.271 905.516 298.104 892.743 298.104 Z M 898.283 281.404 C 906.776 281.404 912.956 279.017 916.823 274.244 C 920.69 269.464 922.683 261.714 922.803 250.994 L 922.803 248.094 C 922.803 235.847 920.81 227.144 916.823 221.984 C 912.836 216.831 906.596 214.254 898.103 214.254 C 890.836 214.254 885.24 217.197 881.313 223.084 C 877.386 228.977 875.423 237.371 875.423 248.264 C 875.423 259.051 877.33 267.271 881.143 272.924 C 884.95 278.577 890.663 281.404 898.283 281.404 ZM 1048.387 261.454 C 1048.387 272.881 1044.257 281.844 1035.997 288.344 C 1027.737 294.851 1016.34 298.104 1001.807 298.104 C 987.28 298.104 975.387 295.847 966.127 291.334 L 966.127 271.474 C 971.987 274.227 978.214 276.394 984.807 277.974 C 991.394 279.554 997.53 280.344 1003.217 280.344 C 1011.537 280.344 1017.674 278.764 1021.627 275.604 C 1025.58 272.437 1027.557 268.187 1027.557 262.854 C 1027.557 258.054 1025.744 253.984 1022.117 250.644 C 1018.484 247.304 1010.984 243.347 999.617 238.774 C 987.897 234.027 979.634 228.607 974.827 222.514 C 970.02 216.421 967.617 209.097 967.617 200.544 C 967.617 189.824 971.427 181.387 979.047 175.234 C 986.66 169.081 996.884 166.004 1009.717 166.004 C 1022.024 166.004 1034.27 168.697 1046.457 174.084 L 1039.777 191.224 C 1028.35 186.424 1018.157 184.024 1009.197 184.024 C 1002.397 184.024 997.24 185.501 993.727 188.454 C 990.207 191.414 988.447 195.327 988.447 200.194 C 988.447 203.534 989.15 206.391 990.557 208.764 C 991.964 211.137 994.28 213.377 997.507 215.484 C 1000.727 217.591 1006.527 220.374 1014.907 223.834 C 1024.34 227.761 1031.254 231.424 1035.647 234.824 C 1040.04 238.217 1043.264 242.054 1045.317 246.334 C 1047.364 250.614 1048.387 255.654 1048.387 261.454 ZM 1094.088 243.614 L 1094.088 296.344 L 1073.258 296.344 L 1073.258 167.844 L 1145.768 167.844 L 1145.768 185.604 L 1094.088 185.604 L 1094.088 225.764 L 1142.518 225.764 L 1142.518 243.614 L 1094.088 243.614 ZM 1248.775 167.844 L 1269.785 167.844 L 1269.785 250.994 C 1269.785 260.487 1267.748 268.794 1263.675 275.914 C 1259.601 283.027 1253.711 288.504 1246.005 292.344 C 1238.298 296.184 1229.085 298.104 1218.365 298.104 C 1202.425 298.104 1190.031 293.884 1181.185 285.444 C 1172.338 277.011 1167.915 265.411 1167.915 250.644 L 1167.915 167.844 L 1189.005 167.844 L 1189.005 249.144 C 1189.005 259.751 1191.468 267.574 1196.395 272.614 C 1201.315 277.654 1208.871 280.174 1219.065 280.174 C 1238.871 280.174 1248.775 269.774 1248.775 248.974 L 1248.775 167.844 Z" transform="matrix(1, 0, 0, 1, 0, 0)" style="fill: rgb(0, 83, 250); white-space: pre;"></path>
</svg>