<svg xmlns="http://www.w3.org/2000/svg" viewBox="0 0 1794.604 1319.888" fill = "#e0e0e0">
<path d="M1251.283 560.226c.08-1.486.137-2.972.19-4.459-.106 1.703-.26 4.602-.19 4.46z"/><path d="M1732.476 362.234c-8.42-10.144-18.174-15.201-31.212-14.25-13.365.975-28.169-1.222-41.557-2.094-19.48-1.269-39.01-1.973-58.513-2.732-5.003-.195-10.006-.397-15.008-.626-3.567-2.761-7.57-4.917-11.69-6.73-9.496-4.182-19.574-7.106-29.583-9.77-8.586-2.284-17.231-4.337-25.95-6.057-4.178-.825-7.067-1.025-10.043-4.262-3.613-3.931-7.562-7.593-11.612-11.068-15.195-13.04-32.89-22.755-52.195-28.149-19.567-5.466-39.932-6.551-60.119-7.52-21.386-1.025-42.756-1.2-64.126.237-28.143 1.893-56.245 5.95-83.785 12.031-3.668.816-7.331 1.657-10.998 2.48-3.369.755-7.57 3.057-8.812-.555-2.69-7.82-8.66-14.83-13.782-21.177-2.499-3.095-5.06-6.165-7.708-9.13-5.697-6.354-.558-13.948-3.597-21.923-2.593-6.803-9.023-12.017-13.739-17.379-5.19-5.902-10.38-11.804-15.6-17.68a216.905 216.905 0 01-4.325-5.001c.898-2.693 3.65-4.571 5.782-6.363 3.438 2.16 7.09 3.949 10.762 5.668 1.627.762 5.185 3.247 6.923 3.247 13.491 6.269 27.268 12.164 41.236 17.293 7.706 2.829 14.452 7.008 21.964 10.114 4.61 1.906 10.12 4.172 14.823 1.299 2.303-3.27-1.954-5.378-2.338-8.38-.229-1.798.67-2.812 1.059-3.811 1.716-4.401 4.749-9.417 8.032-12.712 3-3.012 6.995-3.27 10.157-5.414 2.308-1.565 12.823-31.138 14.848-41.167.338-2.266.43-4.556 2.04-5.398 4.188.46 4.686 1.977 5.428-2.11.731-4.02 1.722-4.082-1.207-6.536-1.95-1.634-3.858-3.337-5.525-5.266 1.256-2.249 2.498-4.506 3.67-6.8 2.123-4.15 4.157-8.304 5.49-12.791 1.08-3.64-1.667-6.047-4.714-7.413-4.121-1.847-8.474-3.49-12.656-5.346a940.151 940.151 0 00-27.769-11.79c-18.7-7.587-37.757-14.129-56.64-21.223a649.29 649.29 0 01-11.402-4.399c-6.345-2.52-12.642-5.165-18.854-8-6.245-2.851-11.928-6.084-18.67-7.622-2.815-.641-7.727-2.63-9.745.214-3.29 4.638-.895 10.023-4.688 14.159-.612.482-1.767 2.132-2.505 2.23-3.681-2.012-7.33-4.081-11.026-6.068-1.45 3.237-2.918 6.447-4.51 9.614-1.837 3.405-7.37 9.73-3.554 12.303 2.681 1.808 5.37 3.605 8.05 5.415 2.815 1.902 2.152 1.955.709 4.571-2.288 4.15-5.355 7.607-8.09 11.333-6.233 8.49-11.978 17.368-18.024 25.996-1.81 2.469-3.457 5.052-5.27 7.519-1.523 2.07-3.564 1.167-4.704 3.384-2.329 4.53-2.532 10.565-3.243 15.534-.865 6.054-1.09 12.572-3.145 18.362-2.136 6.016-4.456 11.985-6.013 18.187-2.014 7.84-4.232 15.97-2.49 24.079 1.266 5.97 3.888 10.854 7.81 15.358 1.281 1.473 2.615 2.903 4.048 4.232 3.036 2.814 3.468 2.773 3.172 7.024-.442 6.331.117 12.467.249 18.788-16.27.453-32.07.81-48.403-.152-21.803-1.285-43.526-3.502-65.316-4.878-43.927-2.776-88.036-3.595-132.028-4.855-22.831-.653-45.667-1.01-68.5-1.569-10.661-.26-21.322-.51-31.983-.758l-16.307-.38c-4.262-.1-9.564.603-13.074-1.9-4.526-3.229-10.154-6.022-15.67-6.681-4.353-.52-9.068 1.94-12.754.18-4.25-2.027-5.66 3.147-8.731 4.273-3.331 1.221-8.986.233-12.61.548-10.738.934-20.205 6.537-29.646 11.343a308.25 308.25 0 01-6.081 3.028c-.225-.774-1.032-4.346-1.516-4.65-3.208.435-18.628-.73-19.208 1.98-.27 1.261-.544 2.527-.823 3.797-2.414-.133-4.212 1.433-5.293 3.447-2.477 4.613-2.42 10.735-2.55 15.79-.142 5.55 1.25 11.451.096 16.918-2.665 8.257-5.125 15.653-2.692 24.301 1.965 6.988 4.728 9.785 9.827 14.1a89.781 89.781 0 013.025 2.718c-1.372 1.743-2.902 3.352-4.43 4.957-2.724 2.86-5.295 5.853-8.026 8.708-3.8 3.972-7.396 9.418-11.593 12.82-3.721 3.016-9.183 1.883-13.808 1.942-12.359.16-30.57-.431-41.345 6.843-5.88 3.97-11.905 8.913-16.348 14.199-3.488 4.15-5.988 9.268-7.311 14.464a37.311 37.311 0 00-.866 4.491 43.975 43.975 0 00-.327 7.232c-2.045.373-4.096.717-6.15 1.043 1.413-14.262 1.686-28.665 2.685-42.965.287-4.105.762-7.89-.942-11.28a422.04 422.04 0 01-12.62-16.96c-2.83-4.013-4.475-6.384-9.328-7.327-10.406-2.006-21.05-1.871-31.6-1.734-12.188.158-24.204.447-33.668 8.625-9.03 7.804-8.357 21.93-8.716 32.799-.667 20.166-.908 40.326-1.33 60.5-.88 42.151-1.429 84.315-2.145 126.46-.317 18.684-.032 37.387-.317 56.063-.148 9.627-.11 19.257-.175 28.885-.067 10.13-1.631 20.987-.522 31.026 1.517 13.738 9.155 23.802 21.112 30.552 5.612 3.168 12.045 8.388 18.668 9.039 7.786 1.447 16.686 2.55 24.42.393 6.754 3.681 12.976 6.32 20.708 7.682 5.365.945 10.814 1.35 16.251 1.507 1.788.063 3.576.019 5.364.067 3.388.09 2.517.518 2.656 3.33-.66 3.045-1.06 6.136-1.616 9.2-.725 3.997-1.695 7.855-2.745 11.721-.397 1.571-.784 3.145-1.16 4.72-.743 3.082-2.86 1.726-5.617 1.536-4.99-.342-9.978-.745-14.98-.855-7.013-.153-15.59-.75-20.993 4.395-9.193-.476-24.945 1.009-30.228 1.764-4.667.667-8.23 2.83-12.623 4.146-4.421 1.324-16.105 3.156-19.147 2.878-4.743-.434-13.561 1.95-17.224 5.618-2.4 2.404-2.394 6.1-5.637 7.731-8.647 4.349-16.646 8.273-23.571 15.258-2.325 2.345-4.799 4.882-6.615 7.653-3.045-.67-1.78 2.911-2.771 4.15-3.714 4.71-6.327 10.403-8.656 15.897-6.105 14.395-10.047 29.818-12.714 45.207-3.573 20.615-3.409 42.087-4.456 62.95a6120.615 6120.615 0 00-2.883 64.014c-.427 10.735-.702 21.476-1.05 32.215-.175 5.346-.367 10.691-.605 16.034a803.73 803.73 0 01-.396 8.019c-.22 4.01-2.596 3.017-6.079 3.93-21.278 5.58-42.53 11.443-63.894 16.817-20.823 5.238-42.01 10.842-63.417 12.98-2.327.107-5.26.42-7.125-1.299-1.617-1.413-4.016-4.88-6.01-5.55-9.25 1.881-18.492 3.76-27.754 5.573-19.14 3.747-38.241 7.73-57.355 11.609-4.647.943-9 1.972-13.428 2.748-2.164.379-4.319.807-6.455 1.32-.155.209.053 1.598-.036 1.864-.817 2.446 0 7.577 0 10.136v67.512a16.6 16.6 0 012.678.067c.05.002.105.009.156.011 3.03-1.422 9.52-2.098 11.317-2.521 5.447-1.282 10.902-2.533 16.339-3.859 18.63-4.433 37.287-8.762 55.93-13.149 10.553-2.483 21.106-4.971 31.656-7.47 4.92-.925 7.595-8.47 8.893-12.31 1.059-3.131.289-3.7 3.82-4.497a3675.92 3675.92 0 0023.678-5.43 5215.824 5215.824 0 0034.194-8.091c10.437-2.504 20.868-5.031 31.298-7.565 9.46-2.299 20.83-7.062 30.559-7.121 2.378-.013 1.87 8.164 2.036 10.518.312 4.404.607 8.809.887 13.215a2387.158 2387.158 0 011.78 31.616c1.072 21.394.663 42.641 1.044 64.023.192 10.819.534 21.635.92 32.448.17 4.742.347 9.483.524 14.225.055 1.469 1.802.88 3.064.88h9.232c-.425-34.257-2.317-68.536-3.232-102.789-.416-15.55-.76-31.096-.926-46.65-.048-4.554-.095-9.11.047-13.663.086-2.747.24-5.492.507-8.226 2.587-.57 5.144-1.27 7.689-2.002 9.466-2.72 18.99-5.216 28.527-7.675 9.38-2.419 18.79-4.731 28.278-6.698 2.296-.476 6.64-2.314 8.507-.822.483 4.937.347 9.902.437 14.853.37 20.226-1.238 40.47-.916 60.712.306 19.219.348 38.402.203 57.633-.14 18.391.26 37.046-1.982 55.327 1.529 0 6.633.917 7.76-.046.075-11.694.153-23.388.233-35.083.151-22.262.116-44.53.375-66.792.256-22.072 1.03-44.133 1.881-66.19.212-5.472.403-10.935.521-16.412.11-5.074-.73-6.139 4.315-7.398 4.244-1.033 8.562-1.88 12.829-2.83 8.05-1.852 16.127-3.694 24.188-5.54a2172.332 2172.332 0 0015.874-3.688c5.01-1.187 10.689-4.15 15.316-1.159 3.153 2.038 6.728 3.633 10.564 3.439 4.03 1.483 7.914 3.61 12.274 3.94 5.407.73 11.169.192 16.446-1.105 2.171-.533 7.655 4.495 9.49 5.774 2.94 2.047 6.226 4.963 9.584 6.243 2.203.84 8.02 1.847 9.989.38 3.382-2.203 2.53-14.361 2.754-18.428.088-1.592.953-5.615.31-7.048-2.918-2.343-5.696-3.632-5.73-7.394-.046-5.206.014-7.13 5.363-8.47 2.545-.638 5.091-1.136 7.632-1.78 17.34-4.398 34.824-8.302 52.259-12.306 37.76-8.671 75.578-16.667 113.12-26.34 15.242-4.06 28.392-11.55 42.966-17.29 3.802-1.497 7.566-3.088 11.387-4.535 2.414-.913 4.294-2.902 5.528.05.725 1.735 1.248 3.556 2.112 5.232 3.98 7.725 12.683.047 18.367-1.279 6.148 6.435 13.335 8.814 21.648 4.66 4.174-2.087 7.173-5.818 8.304-10.53 1.09-4.541-.944-7.91 3.29-10.831 2.57-1.775 5.447-2.41 8.338-3.49 3.606-1.347 2.252-2.978 2.204-6.536 4.018 1.896 13.444 8.048 12.25 12.773-1.022 4.049-5.21 8.249-7.05 12.125a140.615 140.615 0 00-4.101 9.53c-7.473 18.06-8.038 40.754-3.326 59.49 1.813 7.208 3.814 14.5 6.653 21.382 3.287 7.966 9.653 13.624 13.532 21.198 1.439 2.808 4.665 9.442.906 10.833-3.614 1.336-7.169 2.362-10.901 3.347-4.671 1.233-9.72 1.429-13.472 4.69-.01.183-.136 3.671-.136 3.983 0 3.546 1.45 6.34-2.567 7.106-2.816.536-5.655 1.112-8.285 2.242-1.895 6.652-4.65 13.048-4.624 20.332.016 4.64-.487 4.363 3.801 4.574 5.055.249 10.157.297 15.15 1.138-.53 4.216-7.728 3.207-10.852 3.265-1.374.025-6.834-.776-7.745-.02-1.253 1.039-.459 7.27-.271 8.74.927 7.258 5.33 12.364 10.842 16.842 3.94 3.202 4.975 4.1 4.824 9.41-.11 3.885 1.021 2.843 4.756 4.21-5.166 8.756-.081 11.898 3.221 19.983 1.214 2.972 5.832 8.376 4.138 11.686-3.49.01-7.035.131-10.479.75-5.376 1.082-9.864 3.165-14.009 6.674-3.054 2.594-13.617.8-17.604.768-5.948-.049-20.086-2.892-20.086 5.603-1.185 2.735-1.738.12-1.645 3.265.045 1.522-.392 2.237-.665 3.714-1.516 4.013-1.328 8.196-3.045 12.243-1.56 3.68-2.997 7.417-4.968 10.906h354.276c-5.26-4.674-8.404-14.745-11.962-20.713-2.538-4.257-2.98-9.701-8.342-10.255-3.908-.404-7.922.348-11.844.295.026-4.688 2.795-15.79-3.542-17.108-9.16-1.906-20.578.281-29.903.472-3.36.069-20.081 2.22-21.928-1.924 1.29-4.247 3.034-8.335 4.785-12.406 4.168-3.914 6.625-5.482 5.252-11.99-.918-4.352.263-7.118.25-11.556a2012.78 2012.78 0 00-.084-13.526 2616.231 2616.231 0 00-.515-32.063c-.118-5.404-.036-10.956-.465-16.345-.69-8.682-13.034-15.114-19.397-19.92-1.76-1.33-3.512-2.67-5.233-4.05.07-1.793.178-3.584.268-5.376 2.186-2.056 4.183-4.194 5.814-6.75 3.197-5.01 5.26-10.576 7.534-16.024 4.12-10.277 8.082-21.282 9.893-32.278 2.523-15.32-.994-31.784-5.669-46.304-2.398-7.45-11.255-20.957-5.833-28.038 5.103-6.665 14.23-11.021 21.083-15.59 11.38-7.584 26.706-14.397 36.145-24.354 4.303-4.538 3.61-9.715 3.734-15.662.15-7.231.628-14.453.85-21.68 1.907-3.105 13.134-.952 17.093-.792 8.985.36 18.211.212 27.355.246 19.954.074 40.176 1.449 60.064.751 15.323 1.075 12.143-25.356 11.48-33.826-.552-7.063-3.167-14.404-2.917-21.248.143-3.912.458-3.136-3.442-3.785-2.887-.48-5.576-1.72-8.478-2.13-1.284-.182-2.868-.185-4.173-.208-2.08-.037-4.184-.075-6.22-.568.2-2.847.35-5.7.632-8.54.346-3.473 3.503-3.173 6.45-4.816 2.833-1.58 5.071-3.708 7.067-6.317 2.45-3.277 4.088-7.05 5.311-10.928 1.105-3.504 1.98-7.21 2.434-10.866.625-4.988 4.879-5.472 8.764-7.82 10.957-6.622 18.287-16.69 22.764-28.516 2.404-6.352 3.16-13.09 7.728-18.246 2.192-2.476 4.017-4.17 5.208-7.375 3.124-8.41-7.13-12.39-13.273-14.593-4.79-1.717-14.635-13.349-11.133-17.822 1.09-1.394 2.888-1.808 4.525-2.378 1.137-1.483.547-6.571.598-8.425.05-1.806.146-3.463.44-5.252.516-3.13 2.335-1.964 5.084-1.6 5.253.696 8.02 7.698 11.646 11.152.19 5.746-.117 4.695 5.543 4.682 1.385-.003 8.212.832 9.12-.068.077-.786.173-3.418.44-4.064-.011-5.697 4.557.467 5.655 1.076 2.057.346 10.342 1.866 11.21-.871 1.406-4.437 1.462-4.562 4.203.429 2.318 4.22 4.8 8.349 7.38 12.415 3.008 4.744 7.81 9.8 9.76 15.053 1.556 4.189-.556 8.745.89 12.953 1.238 2.878 4.993 5.865 7.24 7.97 7.555 7.084 16.583 12.517 25.973 16.803 16.073 7.338 33.824 12.406 51.472 13.253 22.483 1.079 44.88 3.624 67.389 4.223 2.982.08 6.595.432 9.511-.32 4.216-1.086 7.26-2.886 11.838-2.886 3.756 0 7.498.528 11.189 1.186 6.289 1.122 8.508 2.823 12.255 7.708 6.31 8.229 21.955 5.983 30.69 2.581 4.092-1.688 8.057-3.701 11.79-6.085 2.939-.83 5.705.203 8.786-1.05 8.421-3.912 14.804-11.1 19.85-18.716 6.695-1.422 12.305-5.06 17.332-9.661 2.111-1.933 4.152-4.93 7.418-4.544 5.465.22 10.93.43 16.397.613 18.927.638 37.821.668 56.754.668 9.836 0 16.263-3.51 19.554-13.245 3.053-9.033 1.62-18.734 2.044-28.062.544-18.42.972-36.845 1.448-55.268 1.002-38.755 2.722-77.763 1.695-116.526-.186-7.022-2.796-9.396-10.257-8.964-9.29.54-18.819-.576-28.112-.996-13.11-.593-26.21-1.301-39.332-1.647-3.065-.08-6.127-.065-9.187-.17-2.804-.098-6.049-.161-8.604 1.2-1.602.854-2.873 2.172-4.37 3.177.078-.023-3.088.996-3.072.984-4.303 3.472-5.678 7.679-11.99 7.897-3.2.11-9.67-1.707-11.878 1.376.062.038.063.07.003.096.672.09 1.104.594 1.296 1.51-7.283.362-12.403-.831-19.153-3.385-6.01-2.243-12.139-1.817-18.578-1.817-10.527 0-21.056-1.107-31.578-.355-6.056.26-12.252.101-17.459 3.646-2.157 3.95-5.732 8.078-9.254 11.315-2.56 2.353-6.508.525-9.495 2.51-1.717.859-2.975 3.62-4.454 4.818-2.035 1.647-7.148.766-9.537.834-4.274.122-8.55.153-12.825.153-5.537 0-10.397.061-15.709-1.859-6.006-2.17-14.107-3.583-19.076-7.787-4.868-3.791-10.608-4.067-15.882-5.189-1.643.757-3.126 1.836-4.396 3.127-2.07 2.103-3.448 7.544-5.492 8.953-6.963.058-14.202-1.586-21.093-2.5-8.386-1.082-16.85-2.749-25.284-3.351-8.602-1.69-20.018-.855-25.684 6.91-2.706 3.71-3.01 5.991-7.997 5.641-.306-.037-1.207-.905-1.502-.89-1.511-1.134-2.637.623-3.379 1.717-2.467 3.641-9.225 2.298-13.224 2.393-2.568.061-5.335-.608-7.228 1.276-2.1 2.09-6.512 1.048-9.33.97-3.204-.09-6.406-.114-9.608-.241-4.402-.369-3.253-1.803-3.225-5.919.125-18.649 2.375-37.512-2.123-55.796-.838-3.407-1.8-6.803-3.226-10.017-.318-2.595 2.061-2.314 4.39-2.314 6.167 0 11.758 1.351 17.796.164 3.25.352 5.7 2.882 8.954 2.62 3.412-.276 6.32-.676 9.606.62 4.224 1.669 6.293 1.063 10.523 1.063 4.624 0 7.822 2.903 12.388 3.038 4.974.147 9.157-3.002 13.842-4.672 5.215-1.86 8.498-1.243 13.917-.908 1.858.115 3.728.005 5.586.117 4.861.294 9.649 3.657 14.217 5.247 8.52 2.965 17.584 4.61 26.622 4.21 9.022-.399 18.622-2.624 26.778-6.517 7.103-3.39 13.644-9.679 21.794-9.679 7.82 0 13.486-4.504 21.015-4.964 4.78-.292 13.583 1.118 17.33-2.472 1.993-1.91 3.234-6.722 3.924-9.414-2.096-.519-4.91.135-4.72-2.42.183-2.46-.175-4.948 1.444-6.88 6.783-.287 14.684-1.016 21.321.607 5.852 1.43 11.106 5.651 17.023 5.651 4.388 0 5.265-1.045 7.511-5.047 2.168-3.863 5.905-9.26 9.904-3.4 7.327 10.742 13.99 22.323 24.124 30.741 5.486 4.558 17.549 8.572 18.909 15.58 2.399 1.558 9.507-.53 12.647-.097 6.005.829 11.98 1.612 18.032 2.026 5.743.393 11.547.449 17.274 1.038 6.397.657 4.717 9.024 11.122 3.821 3.627-2.637 4.284-4.294 5.432-8.21-.253 2.594-1.729 4.43-1.767 7.016 9.712-.64 9.955-11.922 12.197-18.885 2.303-8.658 5.635-17.18 8.43-25.695.754-2.296 1.507-4.592 2.264-6.885 1.557-4.713 1.341-4.141 6.098-4.486 11.952-.865 24.398-.242 36.228-2.208 7.624-1.266 14.428-7.118 20.114-11.996 4.121-3.536 3.773-3.4 4.012-8.902.319-7.362.48-14.73.48-22.099a497 497 0 00-1.68-41.03zM920.94 310.503c7.758 0 16.152 1.294 23.027 5.086 4.675 1.211 10.471.238 15.117-.655 8.013-1.541 14.427-3.11 22.662-1.885 7.435 1.106 15.491 3.844 23.004 3.857 5.88.01 11.918-2.656 17.757-3.55 7.07-1.083 14.07-.386 20.757 2.103 3.16 1.177 7.348 2.238 9.381 4.983 1.352 1.828 2.735 3.7 3.449 5.891-1.518 1.292-3.07 2.54-4.61 3.805-2.391 1.965 2.576 5.791 4.022 8.107-11.325.499-22.928-.859-34.224-1.598-13.027-.852-26.207-1.505-39.138-3.362-11.09-1.592-22.146-4.973-32.86-8.154-9.457-2.808-26.139-6.004-32.277-14.54 1.31-.06 2.622-.089 3.933-.088zM401.093 884.818c.283 6.619 1.27 11.172 2.8 17.536 2.909 12.1 2.544 23.335 1.212 35.654-.01.096-.01.088 0 .011-2.22 20.543-3.954 41-4.658 61.662-.277 8.094-.39 16.195-.637 24.282-.132 4.341.156 8.842-1.447 12.975-5.012 1.133-10.002 2.347-15.006 3.514-9.971 2.327-19.95 4.62-29.938 6.868-4.6 1.035-9.202 2.06-13.807 3.074-3.174.699-10.734 3.928-13.666 1.977-.327-20.959 2.2-42.22 3.103-63.166 1.417-32.832-.015-65.962 2.865-98.395 2.055-23.139 7.762-48.389 20.185-68.654 8.67-14.143 20.881-26.654 37.827-29.86 5.436-1.028 8.495.968 13.19 3.4 3.238 1.677 7.37.588 7.096 4.53-.196 3.05-3.142 6.327-4.27 9.208-1.03 2.635-1.685 5.552-2.25 8.325-4.424 21.653-3.536 45.087-2.599 67.059zm4.35 50.072l-.014.127.013-.127zm-.043.392l-.006.055.006-.055zm-.029.266l-.03.28.03-.28zm-.108 1.001l-.02.187.02-.187zm-.082.757l-.004.04.004-.04zm372.542-51.442c-4.806 3.411-9.528 7.017-13.225 11.656-2.281 2.862-4.159 6.007-5.42 9.452a29.213 29.213 0 00-1.52 6.085c-.541 3.973-.761 4.68-3.738 7.62-5.99 5.918-12.113 11.708-18.207 17.516-6.76 6.441-4.232 15.067 4.712 17.379-.675 4.672-12.681 7.041-16.407 8.34-6.261 2.185-12.613 4.092-19.011 5.831-15.056 4.094-30.336 7.276-45.474 11.037-25.25 6.272-50.507 12.282-75.972 17.592-11.801 2.46-23.597 4.79-35.36 7.388-1.45.32-2.81.66-4.272.928-3.437.63-4.416-2.78-7.337-4.13-2.644-1.2-6.712-1.054-9.682-1.868-5.703-1.563-5.816-8.423-11.232-9.45-4.018-.762-9.393-1.36-13.364-.003-8.945 3.056-5.253 7.624-4.986 14.507-4.59.539-8.553-1.587-11.822-4.58-5.872-5.378-8.31-5.744-15.627-3.402-5.263.828-9.458.582-7.396 6.587 1.015 2.957.816 14.472-2.52 15.921-6.884 2.99-15.204 3.631-22.343 5.732-10.304 2.589-20.651 5.032-30.98 7.528 2.05-.809.558-17.715.608-20.63.19-10.938.629-21.653 1.84-32.533 2.378-21.372 1.679-42.375.908-63.812-1.268-35.605-8.445-72.228 3.69-106.725 1.4-3.978 2.718-7.998 4.52-11.819 1.964-1.17 4.084 1.086 5.956 1.219 5.297-2.916 17.586.617 23.009 1.116 5.224.482 10.461.854 15.707.98 2.884-2.402-.294-3.768 4.81-2.954 9.467 1.506 18.03 2.167 27.547.706 3.18-.488 8.433-1.994 8.542 3.076.075 3.43 2.889 3.064 2.728 6.8-.344 7.968-.982 17.39 6.87 22.172 7.03 4.282 13.845 1.352 21.331 1.06 7.94-.31 16.727-.35 24.324.463 6.328.677 12.7.583 19.047.926 5.193.258 3.552-.991 7.964-3.403 3.082-1.684 1.623.905 4.164 1.932 2.735 1.106 6.528 1.026 9.416 1.22 2.734.184 5.558.106 8.162-.838 2.581-.937 5.422-3.09 4.707 1.52-.487 3.142-7.07 1.009-8.89 3.691-3.23 4.76-2.3 16.244-2.616 21.859-.505 8.987-.294 12.26 7.227 16.826 5.026 3.052 14.292 1.727 20.032 1.964 7.265.3 14.531.558 21.798.794 12.443.403 24.895.66 37.334 1.064 30.021.978 60.594 3.12 90.615 1.613a273.11 273.11 0 00-.167 4.047zm303.983-58.874c-2.411 3.822-2.884 2.06-7.23 1.582-3.87-.426-7.801-.187-11.661.22-7.919.833-15.678 1.04-23.645.853-16.192-.38-32.38.455-48.587.208-38.786-.59-77.562-1.297-116.34-2.404-20.041-.572-40.086-1.061-60.122-1.661-4.913-.148-12.756-1.795-17.286-.307-3.373 1.107-8.21 6.406-11.217 8.765-5.643 4.427-9.123 8.333-16.518 8.158-6.1-.145-12.203-.2-18.304-.335-9.212-.203-18.439-.325-27.646-.697-2.96-.12-5.92-.177-8.88-.24-3.836-.028-8.315 1.25-9.215-3.107-.387-1.874-.82-3.707-1.867-5.335-3.343-1.563-7.331-1.632-11.163-1.825-4.237-.213-.587-3.579.854-4.988-5.626.213-8.932.814-4.777-4.989 2.168-3.027.849-6.613 1.768-10.03 3.076 4.145 5.24 8.165 11.14 8.165 4.42 0 8.222-2.524 12.496-3.143 3.734-.541 7.253-2.233 10.677-3.756 9.91-4.407 19.466-9.367 28.376-15.552 6.864-4.764 13.749-9.529 21.042-13.624 3.995-2.243 8.132-4.261 12.466-5.764 4.352-1.51 9.174-1.811 13.342-3.783 7.98-3.809 18.353-2.973 26.983-3.102 10.998-.165 21.998-.096 32.997-.008 39.502.316 82.579-4.307 119.115 13.815 8.084 4.01 13.24 9.222 20.064 14.893 7.315 6.08 15.76 10.705 24.574 14.222 3.022 1.205 6.308 2.647 9.182 3.545 1.59.497 4.956 1.916 6.58 1.022 2.865-1.724 2.463-6.652 5.22-9.118 2.594-2.315 2.749-2.407 1.08-5.328-2.5-4.374-2.177-10.847-3.521-15.777-1.164-4.268-2.37-9.223-4.206-13.237-2.03-4.436-6.386-7.89-9.762-11.267-3.673-3.673-4.784-6.11-6.29-10.862-.221-.453-1.17-1.35-1.531-1.83-4.54-6.044-13.316-7.718-16.825-14.212 5.633.038 11.26.318 16.885.599 5.546.277 11.291-.998 14.827 3.846 3.136 4.297 6.326 8.556 9.628 12.728 3.714 4.692 6.113 9.845 9.531 14.654 7.351 11.083 15.448 21.648 23.701 32.068 3.52 4.444 5.038 7.218 5.125 13.118.064 4.272.265 8.376-.73 12.543.03-.005-.04.307-.33 1.277zm36.346-651.425c-.241 2.296-1.474 2.189-3.09 3.426-3.946 2.903-6.246 7.388-8.316 11.699-4.204 9.877-8.044 19.924-12.873 29.522-1.76 3.499-2.178 1.799-5.295.637-1.747-.65-2.568-1.082-4.03-2.187-3.24-2.45-2.732-4.59-1.368-7.855a366.592 366.592 0 007.579-19.696c2.528-7.196 4.669-14.466 5.871-22.008.985-6.173.15-11.873.237-17.995.08-5.619 8.926 1.791 11.998 3.612 3.127 1.848 8.178 3.4 10.643 6.022 1.963 2.087-1.038 11.773-1.356 14.823zm104.003 365.912c3.136 0 3.23 2.137 3.977 4.706a119.77 119.77 0 00-.427 4.98 134.3 134.3 0 01-5.565.118c-.467-3.226-1.497-3.61-2.683-6.453.14-3.335 1.412-3.35 4.698-3.35zm.43 164.392c.746-.736 1.364-1.238-.887 1.032-3.885-1.996-2.542-6.34-3.942-9.85-.342-5.595 2.76-4.66 7.4-4.359.304 4.469.245 9.496-2.572 13.177zm17.954 49.834c-2.32 4.606-5.506 10.088-10.705 11.746.623-4.007-1.26-9.877 3.079-12.38.495-1.861-4.302-6.462-.12-7.666 4.58-1.319.44-2.06 3.69-5.09 1.642-1.531 7.64-.761 9.749-.534-1.15 4.912-3.437 9.448-5.693 13.924zm1.44-36.042c1.554 2.659 6.19 9.834 2.5 11.437-.918.371-1.435 1.046-1.55 2.027-1.214.079-2.423.202-3.628.368-.91.124-1.846.269-2.763.403-.685-3.06.349-5.91-3.204-7.005-4.324-1.332-5.756.463-7.304-4.11-2.684-7.925 11.749-3.819 15.95-3.12zm9.404-159.435c-.292.61-.584 1.22-.874 1.831-.58-3.048-1.574-7.545-1.595-9.809-3.39-.452-6.895-.779-10.312-.302-.39-4.468-2.88-11.735 3.42-12.04 2.744-2.905 2.274-10.016 2.362-13.769.163-6.88-.096-13.77-.071-20.652.018-4.997.827-6.848-3.516-9.318 1.257-3.484 4.231-6.034 6.878-1.393 3.277 5.746 3.035 13.782 3.497 20.186.35 13.596.896 27.21.402 40.808.117-1.88.176-2.298-.191 4.458z"/>
</svg>